<?xml version="1.0" encoding="utf-8"?>
<!-- Generator: Adobe Illustrator 22.0.1, SVG Export Plug-In . SVG Version: 6.00 Build 0)  -->
<svg version="1.1" id="Capa_1" xmlns="http://www.w3.org/2000/svg" xmlns:xlink="http://www.w3.org/1999/xlink" x="0px" y="0px"
	 viewBox="0 0 512 512" style="enable-background:new 0 0 512 512;" xml:space="preserve">
<style type="text/css">
	.st0{fill:#757575;}
</style>
<g>
	<path class="st0" d="M501.4,54.4H10.6c-4.9,0-8.9,4-8.9,8.9v385.4c0,4.9,4,8.9,8.9,8.9h490.8c4.9,0,8.9-4,8.9-8.9V63.3
		C510,58.4,506.3,54.4,501.4,54.4z M492.5,440.1H19.5V71.9h473.3v368.1H492.5z"/>
	<path class="st0" d="M142.2,248.5c27,0,48.7-21.9,48.7-48.7c0-27-21.9-48.7-48.7-48.7c-27,0-48.7,21.9-48.7,48.7
		S115.1,248.5,142.2,248.5z M142.2,168.3c17.3,0,31.2,14,31.2,31.2s-14,31.2-31.2,31.2s-31.2-14-31.2-31.2
		C110.7,182.5,124.9,168.3,142.2,168.3z"/>
	<path class="st0" d="M63.3,405.1c2,0,4.2-0.7,5.8-2.2L211.9,277l90.4,90.4c3.3,3.3,8.9,3.3,12.4,0c3.3-3.3,3.3-8.9,0-12.4
		l-42.1-42.1l80.4-88.2l98.8,90.4c3.5,3.3,9.1,3.1,12.4-0.4s3.1-9.1-0.4-12.4l-105.2-96.3c-1.8-1.6-4-2.4-6.2-2.2
		c-2.2,0-4.4,1.1-6,2.9L260,300.3l-41.6-41.6c-3.3-3.3-8.4-3.5-12-0.4L57.3,389.6c-3.5,3.1-4,8.6-0.9,12.4
		C58.4,404,60.9,405.1,63.3,405.1z"/>
</g>
</svg>
