<?xml version="1.0" encoding="utf-8"?>
<!-- Generator: Adobe Illustrator 22.0.1, SVG Export Plug-In . SVG Version: 6.00 Build 0)  -->
<svg version="1.1" id="Capa_1" xmlns="http://www.w3.org/2000/svg" xmlns:xlink="http://www.w3.org/1999/xlink" x="0px" y="0px"
	 viewBox="0 0 512 512" style="enable-background:new 0 0 512 512;" xml:space="preserve">
<style type="text/css">
	.st0{fill:#757575;}
</style>
<g>
	<path class="st0" d="M180.9,388c-0.7,0-1.3-0.2-1.9-0.5c-1.3-0.7-2.1-2.1-2.1-3.6v-58c-35.7-18.5-55.2-51-55.2-91.7
		c0-62.8,57.8-110.2,134.4-110.2s134.4,47.4,134.4,110.2c0,62.8-57.8,110.2-134.4,110.2c-2.5,0-5-0.1-7.5-0.3l-0.2,0l-65.2,43.1
		C182.5,387.8,181.7,388,180.9,388z M256,132.1c-72,0-126.2,43.9-126.2,102.1c0,27.1,9.2,63.9,53,85.5c1.4,0.7,2.3,2.1,2.3,3.6v53
		l60-39.7c0.7-0.5,1.6-0.8,2.5-0.7l1.5,0.1c2.3,0.1,4.7,0.3,7,0.3c72,0,126.2-43.9,126.2-102.1S328,132.1,256,132.1z"/>
	<g>
		<path class="st0" d="M317,200.1H195c-2.2,0-4.1-1.8-4.1-4.1s1.8-4.1,4.1-4.1h122c2.2,0,4.1,1.8,4.1,4.1S319.2,200.1,317,200.1z"/>
		<path class="st0" d="M317,239.7H195c-2.2,0-4.1-1.8-4.1-4.1c0-2.2,1.8-4.1,4.1-4.1h122c2.2,0,4.1,1.8,4.1,4.1
			C321.1,237.9,319.2,239.7,317,239.7z"/>
		<path class="st0" d="M256,279.3h-61c-2.2,0-4.1-1.8-4.1-4.1s1.8-4.1,4.1-4.1h61c2.2,0,4.1,1.8,4.1,4.1S258.2,279.3,256,279.3z"/>
	</g>
</g>
</svg>
