<?xml version="1.0" encoding="utf-8"?>
<!-- Generator: Adobe Illustrator 22.0.1, SVG Export Plug-In . SVG Version: 6.00 Build 0)  -->
<svg version="1.1" id="Capa_1" xmlns="http://www.w3.org/2000/svg" xmlns:xlink="http://www.w3.org/1999/xlink" x="0px" y="0px"
	 viewBox="0 0 512 512" style="enable-background:new 0 0 512 512;" xml:space="preserve">
<style type="text/css">
	.st0{fill:#757575;}
</style>
<g>
	<path class="st0" d="M268.9,349.8H165.6c-2.2,0-4.1-1.8-4.1-4.1c0-2.2,1.8-4.1,4.1-4.1h103.3c2.2,0,4.1,1.8,4.1,4.1
		C273.1,347.9,271.2,349.8,268.9,349.8z"/>
	<path class="st0" d="M346.3,290H165.6c-2.2,0-4.1-1.8-4.1-4.1c0-2.3,1.8-4.1,4.1-4.1h180.8c2.2,0,4.1,1.8,4.1,4.1
		C350.5,288.2,348.6,290,346.3,290z"/>
	<path class="st0" d="M268.9,230.3H165.6c-2.2,0-4.1-1.8-4.1-4.1s1.8-4.1,4.1-4.1h103.3c2.2,0,4.1,1.8,4.1,4.1
		S271.2,230.3,268.9,230.3z"/>
	<path class="st0" d="M346.3,170.4H165.6c-2.2,0-4.1-1.8-4.1-4.1s1.8-4.1,4.1-4.1h180.8c2.2,0,4.1,1.8,4.1,4.1
		C350.6,168.6,348.6,170.4,346.3,170.4z"/>
</g>
</svg>
