<?xml version="1.0" encoding="utf-8"?>
<!-- Generator: Adobe Illustrator 22.0.1, SVG Export Plug-In . SVG Version: 6.00 Build 0)  -->
<svg version="1.1" id="Capa_1" xmlns="http://www.w3.org/2000/svg" xmlns:xlink="http://www.w3.org/1999/xlink" x="0px" y="0px"
	 viewBox="0 0 512 512" style="enable-background:new 0 0 512 512;" xml:space="preserve">
<style type="text/css">
	.st0{fill:#757575;}
</style>
<g>
	<path class="st0" d="M350.9,178H161.1c-1.9,0-3.4,1.5-3.4,3.4v149.1c0,1.9,1.5,3.4,3.4,3.4h189.9c1.9,0,3.4-1.5,3.4-3.4V181.4
		C354.3,179.5,352.8,178,350.9,178z M347.5,327.2h-183V184.8h183.1v142.4L347.5,327.2L347.5,327.2z"/>
	<path class="st0" d="M212,253.1c10.4,0,18.8-8.5,18.8-18.8c0-10.4-8.5-18.8-18.8-18.8c-10.4,0-18.8,8.5-18.8,18.8
		S201.5,253.1,212,253.1z M212,222.1c6.7,0,12.1,5.4,12.1,12.1c0,6.7-5.4,12.1-12.1,12.1c-6.7,0-12.1-5.4-12.1-12.1
		C199.8,227.6,205.3,222.1,212,222.1z"/>
	<path class="st0" d="M181.4,313.7c0.8,0,1.6-0.3,2.2-0.9l55.3-48.7l35,35c1.3,1.3,3.4,1.3,4.8,0c1.3-1.3,1.3-3.4,0-4.8L262.4,278
		l31.1-34.1l38.2,35c1.4,1.3,3.5,1.2,4.8-0.2c1.3-1.4,1.2-3.5-0.2-4.8l-40.7-37.3c-0.7-0.6-1.5-0.9-2.4-0.9c-0.9,0-1.7,0.4-2.3,1.1
		l-33.4,36.2L241.5,257c-1.3-1.3-3.3-1.4-4.6-0.2l-57.7,50.8c-1.4,1.2-1.5,3.3-0.3,4.8C179.5,313.3,180.5,313.7,181.4,313.7z"/>
</g>
</svg>
