<?xml version="1.0" encoding="utf-8"?>
<!-- Generator: Adobe Illustrator 22.0.1, SVG Export Plug-In . SVG Version: 6.00 Build 0)  -->
<svg version="1.1" id="Capa_1" xmlns="http://www.w3.org/2000/svg" xmlns:xlink="http://www.w3.org/1999/xlink" x="0px" y="0px"
	 viewBox="0 0 512 512" style="enable-background:new 0 0 512 512;" xml:space="preserve">
<style type="text/css">
	.st0{fill:#757575;}
</style>
<g>
	<g>
		<path class="st0" d="M261.6,243.2c-2.1,2.1-2.1,5.6,0,7.5c8.8,8.8,8.8,22.9,0,31.7l-45.9,45.9c-8.8,8.8-22.9,8.8-31.7,0l-6.9-6.9
			c-8.8-8.8-8.8-22.9,0-31.7l45.8-45.8c2.1-2.1,2.1-5.6,0-7.5c-2.1-2-5.6-2.1-7.5,0l-45.8,45.8c-6.3,6.3-9.7,14.6-9.7,23.4
			c0,8.9,3.4,17.2,9.7,23.4l6.9,6.9c6.4,6.4,14.9,9.7,23.4,9.7c8.5,0,17-3.2,23.4-9.7l45.8-45.8c12.9-12.9,12.9-34,0-46.9
			C267,241,263.6,241,261.6,243.2z"/>
		<path class="st0" d="M342.6,182.9l-6.9-6.9c-12.9-12.9-34-12.9-46.9,0l-45.9,45.8c-12.9,12.9-12.9,34,0,46.9
			c2.1,2.1,5.6,2.1,7.5,0c2.1-2.1,2.1-5.6,0-7.5c-8.8-8.8-8.8-22.9,0-31.7l45.8-45.9c8.8-8.8,22.9-8.8,31.7,0l6.9,6.9
			c8.8,8.8,8.8,22.9,0,31.7l-45.7,45.8c-2.1,2.1-2.1,5.6,0,7.5c1,1,2.4,1.6,3.9,1.6c1.3,0,2.7-0.5,3.9-1.6l45.8-45.8
			c6.3-6.3,9.7-14.6,9.7-23.4C352.3,197.7,348.8,189.2,342.6,182.9z"/>
	</g>
</g>
</svg>
