<?xml version="1.0" encoding="iso-8859-1"?>
<!-- Generator: Adobe Illustrator 19.0.0, SVG Export Plug-In . SVG Version: 6.00 Build 0)  -->
<svg xmlns="http://www.w3.org/2000/svg" xmlns:xlink="http://www.w3.org/1999/xlink" version="1.1" id="Capa_1" x="0px" y="0px" viewBox="0 0 512 512" style="enable-background:new 0 0 512 512;" xml:space="preserve" width="512px" height="512px">
<g>
	<g>
		<path d="M377,0c-74.443,0-135,48.109-135,106c0,23.818,10.605,46.875,30,65.581V226c0,5.537,3.047,10.62,7.925,13.228    c4.816,2.584,10.75,2.349,15.396-0.747l47.036-31.348C354.456,209.726,365.853,211,377,211c74.443,0,135-47.109,135-105    S451.443,0,377,0z M317,121c-8.284,0-15-6.716-15-15s6.716-15,15-15s15,6.716,15,15S325.284,121,317,121z M377,121    c-8.284,0-15-6.716-15-15s6.716-15,15-15s15,6.716,15,15S385.284,121,377,121z M437,121c-8.284,0-15-6.716-15-15s6.716-15,15-15    s15,6.716,15,15S445.284,121,437,121z" fill="#007bff"/>
	</g>
</g>
<g>
	<g>
		<path d="M136,151c-49.629,0-91,40.371-91,90c0,49.629,41.371,90,91,90c49.629,0,91-40.371,91-90C227,191.371,185.629,151,136,151z    " fill="#007bff"/>
	</g>
</g>
<g>
	<g>
		<path d="M216.649,330.075C195.409,349.085,166.679,361,136,361s-59.409-11.915-80.649-30.925C21.964,354.674,0,393.943,0,438.505    V497c0,8.291,6.709,15,15,15h242c8.291,0,15-6.709,15-15v-58.495C272,393.943,250.036,354.674,216.649,330.075z" fill="#007bff"/>
	</g>
</g>
<g>
</g>
<g>
</g>
<g>
</g>
<g>
</g>
<g>
</g>
<g>
</g>
<g>
</g>
<g>
</g>
<g>
</g>
<g>
</g>
<g>
</g>
<g>
</g>
<g>
</g>
<g>
</g>
<g>
</g>
</svg>
