<?xml version="1.0" encoding="utf-8"?>
<!-- Generator: Adobe Illustrator 22.0.1, SVG Export Plug-In . SVG Version: 6.00 Build 0)  -->
<svg version="1.1" id="Capa_1" xmlns="http://www.w3.org/2000/svg" xmlns:xlink="http://www.w3.org/1999/xlink" x="0px" y="0px"
	 viewBox="0 0 512 512" style="enable-background:new 0 0 512 512;" xml:space="preserve">
<style type="text/css">
	.st0{fill:#757575;}
</style>
<g>
	<path class="st0" d="M270.9,364.2H151.8c-2.6,0-4.8-2.1-4.8-4.8c0-2.6,2.1-4.8,4.8-4.8h119.1c2.6,0,4.8,2.1,4.8,4.8
		C275.7,362,273.5,364.2,270.9,364.2z"/>
	<path class="st0" d="M360.2,295.2H151.8c-2.6,0-4.8-2.1-4.8-4.8s2.1-4.8,4.8-4.8h208.5c2.6,0,4.8,2.1,4.8,4.8
		S362.9,295.2,360.2,295.2z"/>
	<path class="st0" d="M270.9,226.3H151.8c-2.6,0-4.8-2.1-4.8-4.8s2.1-4.8,4.8-4.8h119.1c2.6,0,4.8,2.1,4.8,4.8
		S273.5,226.3,270.9,226.3z"/>
	<path class="st0" d="M360.2,157.3H151.8c-2.6,0-4.8-2.1-4.8-4.8s2.1-4.8,4.8-4.8h208.5c2.6,0,4.8,2.1,4.8,4.8
		S362.9,157.3,360.2,157.3z"/>
</g>
</svg>
