<?xml version="1.0" encoding="utf-8"?>
<!-- Generator: Adobe Illustrator 22.0.1, SVG Export Plug-In . SVG Version: 6.00 Build 0)  -->
<svg version="1.1" id="Capa_1" xmlns="http://www.w3.org/2000/svg" xmlns:xlink="http://www.w3.org/1999/xlink" x="0px" y="0px"
	 viewBox="0 0 512 512" style="enable-background:new 0 0 512 512;" xml:space="preserve">
<style type="text/css">
	.st0{fill:#757575;}
</style>
<g>
	<path class="st0" d="M290.3,505.2H16c-5.9,0-11-4.8-11-11c0-5.9,4.8-11,11-11h274.3c5.9,0,11,4.8,11,11
		C301.3,500.1,296.3,505.2,290.3,505.2z"/>
	<path class="st0" d="M495.8,346.3H16c-5.9,0-11-4.8-11-11s4.8-11,11-11h480c5.9,0,11,4.8,11,11S502,346.3,495.8,346.3z"/>
	<path class="st0" d="M290.3,187.8H16c-5.9,0-11-4.8-11-11s4.8-11,11-11h274.3c5.9,0,11,4.8,11,11S296.3,187.8,290.3,187.8z"/>
	<path class="st0" d="M495.8,28.7H16c-5.9,0-11-4.8-11-11c0-6.2,4.8-11,11-11h480c5.9,0,11,4.8,11,11
		C507.1,23.9,502,28.7,495.8,28.7z"/>
</g>
</svg>
