<?xml version="1.0" encoding="utf-8"?>
<!-- Generator: Adobe Illustrator 22.0.1, SVG Export Plug-In . SVG Version: 6.00 Build 0)  -->
<svg version="1.1" id="Capa_1" xmlns="http://www.w3.org/2000/svg" xmlns:xlink="http://www.w3.org/1999/xlink" x="0px" y="0px"
	 viewBox="0 0 512 512" style="enable-background:new 0 0 512 512;" xml:space="preserve">
<style type="text/css">
	.st0{fill:#757575;}
</style>
<g>
	<path class="st0" d="M366.8,165H145.2c-2.2,0-4,1.8-4,4V343c0,2.2,1.8,4,4,4h221.6c2.2,0,4-1.8,4-4V169
		C370.7,166.8,369,165,366.8,165z M362.8,339.1H149.2V172.9h213.7V339.1z"/>
	<path class="st0" d="M204.6,252.6c12.2,0,22-9.9,22-22c0-12.2-9.9-22-22-22c-12.2,0-22,9.9-22,22S192.4,252.6,204.6,252.6z
		 M204.6,216.4c7.8,0,14.1,6.3,14.1,14.1c0,7.8-6.3,14.1-14.1,14.1s-14.1-6.3-14.1-14.1C190.4,222.8,196.8,216.4,204.6,216.4z"/>
	<path class="st0" d="M169,323.3c0.9,0,1.9-0.3,2.6-1l64.5-56.8l40.8,40.8c1.5,1.5,4,1.5,5.6,0c1.5-1.5,1.5-4,0-5.6l-19-19
		l36.3-39.8l44.6,40.8c1.6,1.5,4.1,1.4,5.6-0.2c1.5-1.6,1.4-4.1-0.2-5.6l-47.5-43.5c-0.8-0.7-1.8-1.1-2.8-1c-1,0-2,0.5-2.7,1.3
		L257.8,276l-18.8-18.8c-1.5-1.5-3.8-1.6-5.4-0.2l-67.3,59.3c-1.6,1.4-1.8,3.9-0.4,5.6C166.8,322.8,167.9,323.3,169,323.3z"/>
</g>
</svg>
