<?xml version="1.0" encoding="utf-8"?>
<!-- Generator: Adobe Illustrator 22.0.1, SVG Export Plug-In . SVG Version: 6.00 Build 0)  -->
<svg version="1.1" id="Capa_1" xmlns="http://www.w3.org/2000/svg" xmlns:xlink="http://www.w3.org/1999/xlink" x="0px" y="0px"
	 viewBox="0 0 512 512" style="enable-background:new 0 0 512 512;" xml:space="preserve">
<style type="text/css">
	.st0{fill:#757575;}
</style>
<g>
	<g>
		<path class="st0" d="M270.5,222.4c-5.6,5.6-5.6,14.6,0,19.8c23,23,23,60.1,0,83.1L150.1,445.7c-23,23-60.1,23-83.1,0l-18-18
			c-23-23-23-60.1,0-83.1l120.1-120.1c5.6-5.6,5.6-14.6,0-19.8c-5.6-5.3-14.6-5.6-19.8,0L29.1,324.8c-16.4,16.4-25.4,38.4-25.4,61.4
			c0,23.3,9,45,25.4,61.4l18,18c16.9,16.9,39.2,25.4,61.4,25.4s44.5-8.5,61.4-25.4l120.1-120.1c33.9-33.9,33.9-89.2,0-123.1
			C284.8,216.8,275.8,216.8,270.5,222.4z"/>
		<path class="st0" d="M483,64.4l-18-18c-33.9-33.9-89.2-33.9-123.1,0L221.5,166.6c-33.9,33.9-33.9,89.2,0,123.1
			c5.6,5.6,14.6,5.6,19.8,0c5.6-5.6,5.6-14.6,0-19.8c-23-23-23-60.1,0-83.1L361.5,66.5c23-23,60.1-23,83.1,0l18,18
			c23,23,23,60.1,0,83.1L342.7,287.8c-5.6,5.6-5.6,14.6,0,19.8c2.6,2.6,6.4,4.2,10.1,4.2c3.4,0,7.1-1.3,10.1-4.2L483,187.5
			c16.4-16.4,25.4-38.4,25.4-61.4S499.4,80.8,483,64.4z"/>
	</g>
</g>
</svg>
