<?xml version="1.0" encoding="utf-8"?>
<!-- Generator: Adobe Illustrator 22.0.1, SVG Export Plug-In . SVG Version: 6.00 Build 0)  -->
<svg version="1.1" id="Capa_1" xmlns="http://www.w3.org/2000/svg" xmlns:xlink="http://www.w3.org/1999/xlink" x="0px" y="0px"
	 viewBox="0 0 512 512" style="enable-background:new 0 0 512 512;" xml:space="preserve">
<style type="text/css">
	.st0{fill:#757575;}
</style>
<g>
	<g>
		<path class="st0" d="M261.5,243.3c-2.1,2.1-2.1,5.5,0,7.5c8.7,8.7,8.7,22.7,0,31.4L216,327.7c-8.7,8.7-22.7,8.7-31.4,0l-6.8-6.8
			c-8.7-8.7-8.7-22.7,0-31.4l45.4-45.4c2.1-2.1,2.1-5.5,0-7.5s-5.5-2.1-7.5,0l-45.4,45.4c-6.2,6.2-9.6,14.5-9.6,23.2
			c0,8.8,3.4,17,9.6,23.2l6.8,6.8c6.4,6.4,14.8,9.6,23.2,9.6s16.8-3.2,23.2-9.6l45.4-45.4c12.8-12.8,12.8-33.7,0-46.5
			C266.9,241.2,263.5,241.2,261.5,243.3z"/>
		<path class="st0" d="M341.8,183.6l-6.8-6.8c-12.8-12.8-33.7-12.8-46.5,0L243,222.2c-12.8,12.8-12.8,33.7,0,46.5
			c2.1,2.1,5.5,2.1,7.5,0c2.1-2.1,2.1-5.5,0-7.5c-8.7-8.7-8.7-22.7,0-31.4l45.4-45.4c8.7-8.7,22.7-8.7,31.4,0l6.8,6.8
			c8.7,8.7,8.7,22.7,0,31.4L288.8,268c-2.1,2.1-2.1,5.5,0,7.5c1,1,2.4,1.6,3.8,1.6c1.3,0,2.7-0.5,3.8-1.6l45.4-45.4
			c6.2-6.2,9.6-14.5,9.6-23.2S348,189.8,341.8,183.6z"/>
	</g>
</g>
</svg>
