<?xml version="1.0" encoding="utf-8"?>
<!-- Generator: Adobe Illustrator 22.0.1, SVG Export Plug-In . SVG Version: 6.00 Build 0)  -->
<svg version="1.1" id="Capa_1" xmlns="http://www.w3.org/2000/svg" xmlns:xlink="http://www.w3.org/1999/xlink" x="0px" y="0px"
	 viewBox="0 0 512 512" style="enable-background:new 0 0 512 512;" xml:space="preserve">
<style type="text/css">
	.st0{fill:#757575;}
</style>
<g>
	<path class="st0" d="M267.6,339.9h-92.4c-2,0-3.7-1.6-3.7-3.7c0-2,1.6-3.7,3.7-3.7h92.4c2,0,3.7,1.6,3.7,3.7
		C271.3,338.2,269.6,339.9,267.6,339.9z"/>
	<path class="st0" d="M336.8,286.4H175.2c-2,0-3.7-1.6-3.7-3.7c0-2.1,1.6-3.7,3.7-3.7h161.7c2,0,3.7,1.6,3.7,3.7
		C340.6,284.8,338.9,286.4,336.8,286.4z"/>
	<path class="st0" d="M267.6,233h-92.4c-2,0-3.7-1.6-3.7-3.7s1.6-3.7,3.7-3.7h92.4c2,0,3.7,1.6,3.7,3.7S269.6,233,267.6,233z"/>
	<path class="st0" d="M336.8,179.4H175.2c-2,0-3.7-1.6-3.7-3.7c0-2.1,1.6-3.7,3.7-3.7h161.7c2,0,3.7,1.6,3.7,3.7
		C340.6,177.8,338.9,179.4,336.8,179.4z"/>
</g>
</svg>
